<mxfile host="app.diagrams.net" modified="2021-02-01T09:48:51.154Z" agent="5.0 (Windows)" etag="Th3GV5g81-eaPCOtbKvD" version="14.2.9" type="github">
  <diagram id="C5RBs43oDa-KdzZeNtuy" name="Page-1">
    <mxGraphModel dx="1422" dy="745" grid="1" gridSize="10" guides="1" tooltips="1" connect="1" arrows="1" fold="1" page="1" pageScale="1" pageWidth="827" pageHeight="1169" math="0" shadow="0">
      <root>
        <mxCell id="WIyWlLk6GJQsqaUBKTNV-0" />
        <mxCell id="WIyWlLk6GJQsqaUBKTNV-1" parent="WIyWlLk6GJQsqaUBKTNV-0" />
        <mxCell id="vtNa0MsMpTA_hVX7_8ig-25" value="" style="group" vertex="1" connectable="0" parent="WIyWlLk6GJQsqaUBKTNV-1">
          <mxGeometry x="437" y="90" width="153" height="120" as="geometry" />
        </mxCell>
        <mxCell id="vtNa0MsMpTA_hVX7_8ig-26" value="" style="group" vertex="1" connectable="0" parent="vtNa0MsMpTA_hVX7_8ig-25">
          <mxGeometry width="153" height="120" as="geometry" />
        </mxCell>
        <mxCell id="vtNa0MsMpTA_hVX7_8ig-23" value="&lt;div align=&quot;center&quot;&gt;&lt;b&gt;&lt;br&gt;&lt;/b&gt;&lt;/div&gt;" style="rounded=0;whiteSpace=wrap;html=1;dashed=1;shadow=0;sketch=0;glass=0;fillColor=#d5e8d4;gradientColor=#ffffff;gradientDirection=west;strokeColor=none;" vertex="1" parent="vtNa0MsMpTA_hVX7_8ig-26">
          <mxGeometry y="10" width="153" height="110" as="geometry" />
        </mxCell>
        <mxCell id="vtNa0MsMpTA_hVX7_8ig-24" value="&lt;div align=&quot;center&quot;&gt;&lt;b&gt;&lt;br&gt;&lt;/b&gt;&lt;/div&gt;" style="rounded=0;whiteSpace=wrap;html=1;dashed=1;shadow=0;sketch=0;glass=0;" vertex="1" parent="vtNa0MsMpTA_hVX7_8ig-26">
          <mxGeometry x="3" width="140" height="110" as="geometry" />
        </mxCell>
        <mxCell id="vtNa0MsMpTA_hVX7_8ig-21" value="" style="group" vertex="1" connectable="0" parent="WIyWlLk6GJQsqaUBKTNV-1">
          <mxGeometry x="210" y="60" width="147" height="287" as="geometry" />
        </mxCell>
        <mxCell id="vtNa0MsMpTA_hVX7_8ig-20" value="&lt;div align=&quot;center&quot;&gt;&lt;b&gt;&lt;br&gt;&lt;/b&gt;&lt;/div&gt;" style="rounded=0;whiteSpace=wrap;html=1;dashed=1;shadow=0;sketch=0;glass=0;fillColor=#d5e8d4;gradientColor=#ffffff;gradientDirection=west;strokeColor=none;" vertex="1" parent="vtNa0MsMpTA_hVX7_8ig-21">
          <mxGeometry x="7" y="7" width="140" height="280" as="geometry" />
        </mxCell>
        <mxCell id="vtNa0MsMpTA_hVX7_8ig-18" value="&lt;div align=&quot;center&quot;&gt;&lt;b&gt;&lt;br&gt;&lt;/b&gt;&lt;/div&gt;" style="rounded=0;whiteSpace=wrap;html=1;dashed=1;shadow=0;sketch=0;glass=0;" vertex="1" parent="vtNa0MsMpTA_hVX7_8ig-21">
          <mxGeometry width="140" height="280" as="geometry" />
        </mxCell>
        <mxCell id="vtNa0MsMpTA_hVX7_8ig-11" style="edgeStyle=orthogonalEdgeStyle;rounded=0;orthogonalLoop=1;jettySize=auto;html=1;" edge="1" parent="WIyWlLk6GJQsqaUBKTNV-1" source="vtNa0MsMpTA_hVX7_8ig-1" target="vtNa0MsMpTA_hVX7_8ig-10">
          <mxGeometry relative="1" as="geometry" />
        </mxCell>
        <mxCell id="vtNa0MsMpTA_hVX7_8ig-1" value="http proxy" style="rounded=1;whiteSpace=wrap;html=1;" vertex="1" parent="WIyWlLk6GJQsqaUBKTNV-1">
          <mxGeometry x="220" y="120" width="120" height="60" as="geometry" />
        </mxCell>
        <mxCell id="vtNa0MsMpTA_hVX7_8ig-6" style="edgeStyle=orthogonalEdgeStyle;rounded=0;orthogonalLoop=1;jettySize=auto;html=1;" edge="1" parent="WIyWlLk6GJQsqaUBKTNV-1" source="vtNa0MsMpTA_hVX7_8ig-2" target="vtNa0MsMpTA_hVX7_8ig-1">
          <mxGeometry relative="1" as="geometry" />
        </mxCell>
        <mxCell id="vtNa0MsMpTA_hVX7_8ig-9" style="edgeStyle=orthogonalEdgeStyle;rounded=0;orthogonalLoop=1;jettySize=auto;html=1;entryX=0;entryY=0.5;entryDx=0;entryDy=0;" edge="1" parent="WIyWlLk6GJQsqaUBKTNV-1" source="vtNa0MsMpTA_hVX7_8ig-2" target="vtNa0MsMpTA_hVX7_8ig-4">
          <mxGeometry relative="1" as="geometry" />
        </mxCell>
        <mxCell id="vtNa0MsMpTA_hVX7_8ig-2" value="&lt;div&gt;Client&lt;/div&gt;&lt;div&gt;&lt;br&gt;&lt;/div&gt;" style="shape=umlActor;verticalLabelPosition=bottom;verticalAlign=top;html=1;outlineConnect=0;" vertex="1" parent="WIyWlLk6GJQsqaUBKTNV-1">
          <mxGeometry x="80" y="170" width="30" height="60" as="geometry" />
        </mxCell>
        <mxCell id="vtNa0MsMpTA_hVX7_8ig-13" style="edgeStyle=orthogonalEdgeStyle;rounded=0;orthogonalLoop=1;jettySize=auto;html=1;" edge="1" parent="WIyWlLk6GJQsqaUBKTNV-1" source="vtNa0MsMpTA_hVX7_8ig-4" target="vtNa0MsMpTA_hVX7_8ig-10">
          <mxGeometry relative="1" as="geometry" />
        </mxCell>
        <mxCell id="vtNa0MsMpTA_hVX7_8ig-16" style="edgeStyle=orthogonalEdgeStyle;rounded=0;orthogonalLoop=1;jettySize=auto;html=1;curved=1;" edge="1" parent="WIyWlLk6GJQsqaUBKTNV-1" source="vtNa0MsMpTA_hVX7_8ig-4" target="vtNa0MsMpTA_hVX7_8ig-5">
          <mxGeometry relative="1" as="geometry" />
        </mxCell>
        <mxCell id="vtNa0MsMpTA_hVX7_8ig-4" value="https proxy" style="rounded=1;whiteSpace=wrap;html=1;" vertex="1" parent="WIyWlLk6GJQsqaUBKTNV-1">
          <mxGeometry x="220" y="230" width="120" height="60" as="geometry" />
        </mxCell>
        <mxCell id="vtNa0MsMpTA_hVX7_8ig-5" value="&lt;div&gt;VPN server&lt;/div&gt;&lt;div&gt;https&lt;br&gt;&lt;/div&gt;" style="rounded=1;whiteSpace=wrap;html=1;" vertex="1" parent="WIyWlLk6GJQsqaUBKTNV-1">
          <mxGeometry x="450" y="370" width="120" height="60" as="geometry" />
        </mxCell>
        <mxCell id="vtNa0MsMpTA_hVX7_8ig-10" value="&lt;div&gt;https&lt;/div&gt;&lt;div&gt;content server&lt;br&gt;&lt;/div&gt;" style="rounded=1;whiteSpace=wrap;html=1;" vertex="1" parent="WIyWlLk6GJQsqaUBKTNV-1">
          <mxGeometry x="450" y="120" width="120" height="60" as="geometry" />
        </mxCell>
        <mxCell id="vtNa0MsMpTA_hVX7_8ig-12" value="redirect by link" style="text;html=1;strokeColor=none;fillColor=none;align=center;verticalAlign=middle;whiteSpace=wrap;rounded=0;" vertex="1" parent="WIyWlLk6GJQsqaUBKTNV-1">
          <mxGeometry x="370" y="120" width="40" height="20" as="geometry" />
        </mxCell>
        <mxCell id="vtNa0MsMpTA_hVX7_8ig-14" value="web traffic redirect by link" style="text;html=1;strokeColor=none;fillColor=none;align=center;verticalAlign=middle;whiteSpace=wrap;rounded=0;" vertex="1" parent="WIyWlLk6GJQsqaUBKTNV-1">
          <mxGeometry x="370" y="230" width="100" height="20" as="geometry" />
        </mxCell>
      </root>
    </mxGraphModel>
  </diagram>
</mxfile>
